<svg width="24" height="24" viewBox="0 0 24 24" fill="none" xmlns="http://www.w3.org/2000/svg">
<path d="M22.6794 1.32019C21.7996 0.44012 20.7395 0 19.5 0H4.49997C3.2605 0 2.20043 0.44012 1.32019 1.32019C0.440119 2.20043 0 3.26044 0 4.49997V19.4999C0 20.7393 0.440119 21.7994 1.32019 22.6797C2.20043 23.5599 3.2605 24 4.49997 24H19.4999C20.7393 24 21.7994 23.5599 22.6793 22.6797C23.5595 21.7994 23.9996 20.7394 23.9996 19.4999V4.49997C23.9996 3.26044 23.5594 2.20026 22.6794 1.32019ZM7.31241 20.0936H3.70303V9.2498H7.31241V20.0936ZM6.98449 7.2422C6.60955 7.60159 6.1147 7.78132 5.50006 7.78132H5.4843C4.89061 7.78132 4.40901 7.60159 4.03911 7.2422C3.66915 6.8828 3.48428 6.43754 3.48428 5.9063C3.48428 5.36466 3.67451 4.91666 4.0546 4.56241C4.43495 4.20827 4.92706 4.03112 5.53114 4.03112C6.13528 4.03112 6.61967 4.20827 6.98432 4.56241C7.34886 4.91666 7.53641 5.36466 7.54676 5.9063C7.5467 6.43732 7.35943 6.88258 6.98449 7.2422ZM20.2968 20.0936H16.6874V14.2968C16.6874 12.6616 16.0834 11.8438 14.875 11.8438C14.4167 11.8438 14.0311 11.9714 13.7187 12.2266C13.406 12.4817 13.1717 12.7916 13.0156 13.1565C12.9426 13.3438 12.9062 13.6354 12.9062 14.0311V20.0935H9.29689C9.32814 13.552 9.32814 9.9373 9.29689 9.2497H12.9062V10.7807C13.6651 9.5941 14.7428 8.99961 16.1407 8.99961C17.3907 8.99961 18.396 9.4112 19.1564 10.2339C19.9168 11.0569 20.297 12.2706 20.297 13.8743L20.2968 20.0936Z" fill="#F2F2F2"/>
</svg>
